<mxfile host="app.diagrams.net" modified="2022-01-15T07:34:09.811Z" agent="5.0 (Windows NT 10.0; Win64; x64) AppleWebKit/537.36 (KHTML, like Gecko) Chrome/77.0.3865.120 Safari/537.36" etag="Cs_I2MsbhJgZ3zeTSszd" version="16.0.0" type="github">
  <diagram id="tm-nALROagj8iYamRgqU" name="第 1 页">
    <mxGraphModel dx="865" dy="483" grid="1" gridSize="10" guides="1" tooltips="1" connect="1" arrows="1" fold="1" page="1" pageScale="1" pageWidth="827" pageHeight="1169" math="0" shadow="0">
      <root>
        <mxCell id="0" />
        <mxCell id="1" parent="0" />
        <mxCell id="p4Hp8FtgV2sdefWnoZf5-1" value="&lt;font style=&quot;font-size: 24px&quot;&gt;&lt;b&gt;10111011&amp;nbsp; 11101001&amp;nbsp; 10111010&amp;nbsp; 00000001&amp;nbsp;&lt;/b&gt;&lt;/font&gt;" style="text;html=1;strokeColor=none;fillColor=none;align=center;verticalAlign=middle;whiteSpace=wrap;rounded=0;" vertex="1" parent="1">
          <mxGeometry x="210" y="200" width="530" height="130" as="geometry" />
        </mxCell>
      </root>
    </mxGraphModel>
  </diagram>
</mxfile>
